<?xml version="1.0" encoding="UTF-8" standalone="no"?>
<svg
   viewBox="0 0 102.25 122.88"
   version="1.1"
   id="svg12"
   sodipodi:docname="svelte.svg"
   inkscape:version="1.1 (c68e22c387, 2021-05-23)"
   xmlns:inkscape="http://www.inkscape.org/namespaces/inkscape"
   xmlns:sodipodi="http://sodipodi.sourceforge.net/DTD/sodipodi-0.dtd"
   xmlns="http://www.w3.org/2000/svg"
   xmlns:svg="http://www.w3.org/2000/svg">
  <sodipodi:namedview
     id="namedview14"
     pagecolor="#ffffff"
     bordercolor="#999999"
     borderopacity="1"
     inkscape:pageshadow="0"
     inkscape:pageopacity="0"
     inkscape:pagecheckerboard="0"
     showgrid="false"
     inkscape:zoom="3.2633464"
     inkscape:cx="-8.1204986"
     inkscape:cy="71.858752"
     inkscape:window-width="1920"
     inkscape:window-height="991"
     inkscape:window-x="-9"
     inkscape:window-y="-9"
     inkscape:window-maximized="1"
     inkscape:current-layer="svg12" />
  <defs
     id="defs4">
    <style
       id="style2">.a{fill:#ff3e00;}.b{fill:#fff;}</style>
  </defs>
  <title
     id="title6">svelte</title>
  <path
     class="a"
     d="M 78.155239,34.062355 C 71.241142,24.166894 57.582618,21.234008 47.711395,27.523958 L 30.368584,38.576818 A 19.893937,19.893937 0 0 0 21.357837,51.896 a 21.287663,21.287663 0 0 0 -0.333282,3.720645 21.021037,21.021037 0 0 0 2.423873,9.731851 19.996952,19.996952 0 0 0 -2.975304,7.435229 21.208887,21.208887 0 0 0 3.635808,16.033919 c 6.914098,9.895464 20.60292,12.828346 30.443844,6.538394 L 71.877408,84.303182 a 19.851519,19.851519 0 0 0 8.986508,-13.331302 20.651397,20.651397 0 0 0 0.333283,-3.714584 21.039217,21.039217 0 0 0 -2.393574,-9.719732 19.996952,19.996952 0 0 0 2.975304,-7.42917 21.814856,21.814856 0 0 0 0.327223,-3.714585 21.16647,21.16647 0 0 0 -3.950913,-12.319334 z m 0,0 z"
     id="path8"
     style="stroke-width:0.605968" />
  <path
     class="b"
     d="m 46.014684,89.750835 a 13.900912,13.900912 0 0 1 -3.466138,0.442358 13.755479,13.755479 0 0 1 -11.313427,-5.92637 12.725332,12.725332 0 0 1 -2.375395,-7.410991 13.088914,13.088914 0 0 1 0.19391,-2.229964 12.434468,12.434468 0 0 1 0.418118,-1.617935 l 0.327223,-0.993788 0.884713,0.672625 a 22.4996,22.4996 0 0 0 6.786844,3.393423 l 0.642326,0.19391 -0.0606,0.642325 c 0,0.109075 0,0.224209 0,0.333284 a 3.8539579,3.8539579 0 0 0 0.715043,2.242082 4.1327033,4.1327033 0 0 0 3.405541,1.817904 4.0296888,4.0296888 0 0 0 1.042265,-0.133313 3.8054805,3.8054805 0 0 0 1.066504,-0.466595 L 61.606246,69.602392 a 3.6358094,3.6358094 0 0 0 1.690652,-3.084378 3.8478982,3.8478982 0 0 0 -0.733221,-2.236023 4.1508824,4.1508824 0 0 0 -3.411602,-1.781546 4.0296888,4.0296888 0 0 0 -1.042265,0.133312 3.6358094,3.6358094 0 0 0 -1.060444,0.466596 l -6.605054,4.217538 a 12.761691,12.761691 0 0 1 -3.520675,1.54522 13.973628,13.973628 0 0 1 -3.466139,0.442356 13.773658,13.773658 0 0 1 -11.313427,-5.920309 12.755631,12.755631 0 0 1 -2.375395,-7.410991 13.088914,13.088914 0 0 1 0.193909,-2.229963 12.010291,12.010291 0 0 1 5.405237,-8.016961 L 52.710634,34.680442 a 12.725332,12.725332 0 0 1 3.520674,-1.551278 13.937269,13.937269 0 0 1 3.466138,-0.436297 13.779718,13.779718 0 0 1 11.349786,5.91425 12.755631,12.755631 0 0 1 2.345097,7.417051 13.16163,13.16163 0 0 1 -0.19391,2.236023 12.434468,12.434468 0 0 1 -0.418118,1.617936 l -0.327222,0.993786 -0.884714,-0.648385 A 22.360228,22.360228 0 0 0 64.78152,46.830106 l -0.642326,-0.199971 0.0606,-0.642325 c 0,-0.109075 0,-0.224208 0,-0.333282 A 3.8903161,3.8903161 0 0 0 63.484753,43.406385 4.1508824,4.1508824 0 0 0 60.07921,41.624839 4.0296888,4.0296888 0 0 0 59.049065,41.782391 3.5691528,3.5691528 0 0 0 57.98256,42.248985 L 40.639746,53.295786 a 3.6358094,3.6358094 0 0 0 -1.630054,2.423873 4.1933001,4.1933001 0 0 0 -0.07877,0.642327 3.8478982,3.8478982 0 0 0 0.715042,2.236023 4.1448227,4.1448227 0 0 0 3.405542,1.781547 4.0296888,4.0296888 0 0 0 1.042266,-0.133313 3.6358094,3.6358094 0 0 0 1.066503,-0.466596 l 6.617172,-4.241777 a 12.682916,12.682916 0 0 1 3.520676,-1.54522 13.937269,13.937269 0 0 1 3.466138,-0.442356 13.779718,13.779718 0 0 1 11.319488,5.920309 12.755631,12.755631 0 0 1 2.375394,7.410991 12.507184,12.507184 0 0 1 -0.199968,2.254203 11.986052,11.986052 0 0 1 -5.405238,8.016959 L 49.54142,88.199557 a 12.725332,12.725332 0 0 1 -3.526736,1.551278 z m 0,0 z"
     id="path10"
     style="stroke-width:0.605968" />
</svg>
